<svg id="Layer_1" data-name="Layer 1" xmlns="http://www.w3.org/2000/svg" viewBox="0 0 290.32 107.02"><defs><style>.cls-1,.cls-3{fill:#52268d;}.cls-2,.cls-4,.cls-5,.cls-6,.cls-7{fill:none;}.cls-2,.cls-3,.cls-4,.cls-5,.cls-6,.cls-7{stroke:#52268d;stroke-miterlimit:10;}.cls-2{stroke-width:2px;}.cls-3,.cls-4{stroke-width:1.07px;}.cls-5{stroke-width:0.79px;}.cls-6{stroke-width:0.88px;}</style></defs><path class="cls-1" d="M2,52.12l2.89-2.61L3.41,58.43H0l.28-8.92H28.05l.26,8.92H25l-1.43-8.92,2.87,2.61ZM15,79l7.13.74V82H6.29V79.7L13.35,79ZM11,64.7c0-5.05,0-10.15-.14-15.19h6.64c-.14,5-.14,10-.14,15.19v2.1c0,5.07,0,10.16.14,15.21H10.81c.14-5,.14-10,.14-15.19Z" transform="translate(0.01)"/><path class="cls-1" d="M36.69,72.82c1.41-.46,3.69-1.09,5.34-1.43v1.32a31.82,31.82,0,0,0-4.49,1.36c-2.29.92-3,2.13-3,3.43A2.25,2.25,0,0,0,37,80c.91,0,1.52-.36,3.12-1.51l1-.78.42.61-1.21,1.27c-1.84,1.89-3,2.89-5.22,2.89-2.56,0-4.51-1.49-4.51-4.3C30.6,76,31.78,74.41,36.69,72.82Zm3.23,6.24V70.92c0-3.17-.76-4-3-4a9.49,9.49,0,0,0-3.12.55l1.86-1.19-.56,2.63c-.19,1.64-1,2.37-2.12,2.37a1.76,1.76,0,0,1-1.92-1.54c.41-2.71,3-4.47,7.2-4.47,3.94,0,5.65,1.73,5.65,6.15v7.42c0,1.09.38,1.52,1,1.52s.79-.24,1.18-.75l.79.68a3.53,3.53,0,0,1-3.5,2.16A3.29,3.29,0,0,1,40,79.3v-.24Z" transform="translate(0.01)"/><path class="cls-1" d="M63.17,72.1A7.16,7.16,0,0,1,63,74H50V72.39h7.21c1.63,0,2-.7,2-1.93,0-2.09-1.34-3.52-3-3.52s-3.68,1.68-3.68,6.57c0,4.23,2.11,6.32,5.07,6.32a5.64,5.64,0,0,0,4.44-2.12l1,.86a7.18,7.18,0,0,1-6.82,4c-4.75,0-8-3.2-8-8.53a8.36,8.36,0,0,1,8.27-8.71C60.51,65.25,63.17,68,63.17,72.1Z" transform="translate(0.01)"/><path class="cls-1" d="M71,57.09l.51.31-.14,4.79V74.75c0,2.31,0,5.35.1,7.26H67.13c.07-1.91.1-5,.1-7.14V60.27l-2.46-.33V58.62Zm2.71,23.53V82h-8.8V80.61l3.5-.68H70Zm7.62-14.89-12,11.79v-2l9.66-9.75Zm-2.06,14,4.17.9V82H77.65l-4.9-9,2.86-2.71,6.3,11.12Zm-1.4-11.9-3.24-.68V65.74h7.91v1.41l-3.77.55Z" transform="translate(0.01)"/><path class="cls-1" d="M86.66,67.69l-3.32-.55V65.73h8.33v1.41l-3.77.55Zm12-2,4.46,12.59-.83-.19,3.9-12.4h2.15L102.65,82.1h-1.9A134.3,134.3,0,0,1,96,68.61l1.36-.13-5,13.66H90.43l-6-16.41h4.33l4.07,12.59-.76-.19,4.39-12.4Zm-5,1.41V65.69h7.91V67.1l-3.26.55H97.24Zm12.76.5-3-.5V65.69h6.21V67.1l-2.59.5Z" transform="translate(0.01)"/><path class="cls-1" d="M110.29,73.87c0-5.43,3.81-8.62,8.2-8.62s8.2,3.15,8.2,8.62-3.63,8.62-8.2,8.62S110.29,79.3,110.29,73.87Zm12,0c0-4.69-1.35-7-3.77-7s-3.77,2.31-3.77,7,1.31,6.93,3.77,6.93,3.74-2.19,3.74-6.89Z" transform="translate(0.01)"/><path class="cls-1" d="M131.28,82c.06-1.53.1-5,.1-7.14V73.08c0-1.87,0-2.75-.1-4.11l-2.4-.31V67.4l5.69-2.16.54.36.36,3.85v5.41c0,2.11,0,5.61.1,7.14Zm6.25-1.39V82h-8.39V80.61l3.43-.68h1.66Zm8.23-9.3v3.55c0,2.18,0,5.61.1,7.14h-4.3c.07-1.53.1-5,.1-7.14V71.64c0-2.66-.68-3.55-2.37-3.55-1.45,0-3,.79-4.6,2.42h-.94V68.64h2l-1.38.79c2-2.81,4.32-4.19,6.75-4.19,2.95,0,4.64,1.88,4.64,6.08Zm-1.26,8.62,3.36.68V82h-8.4V80.61l3.4-.68Z" transform="translate(0.01)"/><path class="cls-1" d="M158.51,80.07c1.68,0,2.85-1,4.16-2.81L163,78c-1.49,3-3.33,4.5-6.17,4.5-4,0-6.86-3.23-6.86-8.48s3.36-8.76,7.37-8.76c2.45,0,4,1.21,5.66,4l-.34.77c-1.65-1.75-2.81-2.43-4.15-2.43-2.3,0-4.19,2-4.19,6.31C154.35,78.07,156.09,80.07,158.51,80.07Zm9.31.55V82l-5.93.37-.39-3.25V68.5l.15-.41V60.27L159,59.94V58.62l6.21-1.53.52.31-.14,4.79V82l-1.44-2.11Z" transform="translate(0.01)"/><path class="cls-1" d="M169.72,73.87c0-5.43,3.81-8.62,8.2-8.62s8.2,3.15,8.2,8.62-3.63,8.62-8.2,8.62S169.72,79.3,169.72,73.87Zm12,0c0-4.69-1.34-7-3.77-7s-3.76,2.31-3.76,7,1.3,6.93,3.76,6.93,3.74-2.19,3.74-6.89Z" transform="translate(0.01)"/><circle class="cls-2" cx="212.46" cy="15.5" r="14.5"/><path class="cls-3" d="M220.31,73.71a.69.69,0,0,1,.11-.13,5.24,5.24,0,0,1,2.69-1.91l.25-.08.27-.09c-10.55-14.35-11.92-28.19-7.39-41.91l-5.66,1.57a76,76,0,0,0,9.59,42.74C220.21,73.83,220.27,73.78,220.31,73.71Z" transform="translate(0.01)"/><path class="cls-4" d="M287.45,26.5c-7.07-12.7-2.46,9.57-7,10,0,0-11,5-59,31l2,4L289.76,36S289.46,30.1,287.45,26.5Z" transform="translate(0.01)"/><path class="cls-5" d="M220.45,70c-7.23,11.26-10.2,45.68.63,34.37,16.32-17,20.9-24.92,20.9-24.92L249,82l-5.07-10.31s-24.07,31.79-24.7,25.78,1.27-26.64,1.27-26.64" transform="translate(0.01)"/><path class="cls-6" d="M252.85,27.58c-.8,2-40.17,14.28-40.17,14.28l1.32,3.7c17.49-7.66,36.15-14.8,40.17-14.27C260.26,29.83,253.53,25.94,252.85,27.58Z" transform="translate(0.01)"/><path class="cls-7" d="M225.19,50.08a8.51,8.51,0,0,1-1.33-1.6c-11.4,1.58-33.82,4.22-21-.33,28.43-10-7-1.51-7-1.51,2.16-.32-11,9.79,1.94,9,15.16-.93,22.86-2.62,26.92-4.23A6.23,6.23,0,0,1,225.19,50.08Z" transform="translate(0.01)"/></svg>