<svg id="Layer_1" data-name="Layer 1" xmlns="http://www.w3.org/2000/svg" viewBox="0 0 290.31 107.02"><defs><style>.cls-1,.cls-3{fill:#52268d;}.cls-2,.cls-4,.cls-5,.cls-6,.cls-7{fill:none;}.cls-2,.cls-3,.cls-4,.cls-5,.cls-6,.cls-7{stroke:#52268d;stroke-miterlimit:10;}.cls-2{stroke-width:2px;}.cls-3,.cls-4{stroke-width:1.07px;}.cls-5{stroke-width:0.79px;}.cls-6{stroke-width:0.88px;}</style></defs><path class="cls-1" d="M568,454.12l2.89-2.61-1.43,8.92h-3.42l.28-8.92h27.78l.26,8.92H591l-1.43-8.92,2.87,2.61ZM581,481l7.13.74V484H572.34v-2.3l7.06-.74ZM577,466.7c0-5.05,0-10.15-.14-15.19h6.64c-.14,4.95-.14,10-.14,15.19v2.1c0,5.07,0,10.16.14,15.21h-6.64c.14-4.95.14-10,.14-15.19Z" transform="translate(-566.05 -402)"/><path class="cls-1" d="M602.74,474.82c1.41-.46,3.69-1.09,5.34-1.43v1.32a32.23,32.23,0,0,0-4.49,1.36c-2.29.92-3,2.13-3,3.43A2.24,2.24,0,0,0,603,482c.91,0,1.52-.36,3.12-1.51l1-.78.42.61-1.21,1.27c-1.84,1.89-3,2.89-5.22,2.89-2.56,0-4.51-1.49-4.51-4.3C596.65,478,597.83,476.41,602.74,474.82Zm3.23,6.24v-8.14c0-3.17-.76-4-3-4a9.56,9.56,0,0,0-3.12.55l1.86-1.19-.56,2.63c-.19,1.64-1,2.37-2.12,2.37a1.76,1.76,0,0,1-1.92-1.54c.41-2.71,3-4.47,7.2-4.47,3.94,0,5.65,1.73,5.65,6.15v7.42c0,1.09.38,1.52,1,1.52.47,0,.79-.24,1.18-.75l.79.68a3.53,3.53,0,0,1-3.5,2.16A3.29,3.29,0,0,1,606,481.06Z" transform="translate(-566.05 -402)"/><path class="cls-1" d="M629.22,474.1A7.39,7.39,0,0,1,629,476H616.08v-1.61h7.21c1.63,0,2-.7,2-1.93,0-2.09-1.34-3.52-3-3.52s-3.68,1.68-3.68,6.57c0,4.23,2.11,6.32,5.07,6.32a5.64,5.64,0,0,0,4.44-2.12l1,.86a7.17,7.17,0,0,1-6.82,4c-4.75,0-8-3.2-8-8.53s4-8.71,8.27-8.71C626.56,467.25,629.22,470,629.22,474.1Z" transform="translate(-566.05 -402)"/><path class="cls-1" d="M637,459.09l.51.31-.14,4.79v12.56c0,2.31,0,5.35.1,7.26h-4.29c.07-1.91.1-4.95.1-7.14v-14.6l-2.46-.33v-1.32Zm2.71,23.53V484h-8.8v-1.39l3.5-.68h1.66Zm7.62-14.89-12.05,11.79v-2l9.66-9.75Zm-2.06,14,4.17.9V484h-5.74l-4.9-8.95,2.86-2.71,6.3,11.12Zm-1.4-11.9-3.24-.68v-1.41h7.91v1.41l-3.77.55Z" transform="translate(-566.05 -402)"/><path class="cls-1" d="M652.71,469.69l-3.32-.55v-1.41h8.33v1.41l-3.77.55Zm12-2,4.46,12.59-.83-.19,3.9-12.4h2.15l-5.69,16.41H666.8A132.79,132.79,0,0,1,662,470.61l1.36-.13-5,13.66h-1.88l-6-16.41h4.33l4.07,12.59-.76-.19,4.39-12.4Zm-5,1.41v-1.41h7.91v1.41l-3.26.55h-1.07Zm12.76.5-3-.5v-1.41h6.21v1.41l-2.59.5Z" transform="translate(-566.05 -402)"/><path class="cls-1" d="M676.34,475.87c0-5.43,3.81-8.62,8.2-8.62s8.2,3.15,8.2,8.62-3.63,8.62-8.2,8.62S676.34,481.3,676.34,475.87Zm12,0c0-4.69-1.35-7-3.77-7s-3.77,2.31-3.77,7,1.31,6.93,3.77,6.93S688.31,480.61,688.31,475.91Z" transform="translate(-566.05 -402)"/><path class="cls-1" d="M697.33,484c.06-1.53.1-5,.1-7.14v-1.78c0-1.87,0-2.75-.1-4.11l-2.4-.31v-1.26l5.69-2.16.54.36.36,3.85v5.41c0,2.11,0,5.61.1,7.14Zm6.25-1.39V484h-8.39v-1.39l3.43-.68h1.66Zm8.23-9.3v3.55c0,2.18,0,5.61.1,7.14h-4.3c.07-1.53.1-5,.1-7.14v-3.22c0-2.66-.68-3.55-2.37-3.55-1.45,0-3,.79-4.6,2.42h-.94v-1.87h2l-1.38.79c2-2.81,4.32-4.19,6.75-4.19C710.12,467.25,711.81,469.12,711.81,473.32Zm-1.26,8.62,3.36.68V484h-8.4v-1.39l3.4-.68Z" transform="translate(-566.05 -402)"/><path class="cls-1" d="M724.56,482.07c1.68,0,2.85-1,4.16-2.81l.36.73c-1.49,3-3.33,4.5-6.17,4.5-4,0-6.86-3.23-6.86-8.48s3.36-8.76,7.37-8.76c2.45,0,4,1.21,5.66,4.05l-.34.77c-1.65-1.75-2.81-2.43-4.15-2.43-2.3,0-4.19,2-4.19,6.31C720.4,480.07,722.14,482.07,724.56,482.07Zm9.31.55V484l-5.93.37-.39-3.25V470.5l.15-.41v-7.82l-2.65-.33v-1.32l6.21-1.53.52.31-.14,4.79V484l-1.44-2.11Z" transform="translate(-566.05 -402)"/><path class="cls-1" d="M735.77,475.87c0-5.43,3.81-8.62,8.2-8.62s8.2,3.15,8.2,8.62-3.63,8.62-8.2,8.62S735.77,481.3,735.77,475.87Zm12,0c0-4.69-1.34-7-3.77-7s-3.76,2.31-3.76,7,1.3,6.93,3.76,6.93S747.74,480.61,747.74,475.91Z" transform="translate(-566.05 -402)"/><circle class="cls-2" cx="212.45" cy="15.5" r="14.5"/><path class="cls-3" d="M786.36,475.71a.69.69,0,0,1,.11-.13,5.3,5.3,0,0,1,2.69-1.91l.25-.08.27-.09c-10.55-14.35-11.92-28.19-7.39-41.91l-5.66,1.57a76,76,0,0,0,9.59,42.74C786.26,475.83,786.32,475.78,786.36,475.71Z" transform="translate(-566.05 -402)"/><path class="cls-4" d="M853.5,428.5c-7.07-12.7-2.46,9.57-7,10,0,0-11,5-59,31l2,4L855.81,438S855.51,432.1,853.5,428.5Z" transform="translate(-566.05 -402)"/><path class="cls-5" d="M786.5,472c-7.23,11.26-10.2,45.68.63,34.37,16.32-17,20.9-24.92,20.9-24.92l7,2.58-5.07-10.31s-24.07,31.79-24.7,25.78,1.27-26.64,1.27-26.64" transform="translate(-566.05 -402)"/><path class="cls-6" d="M818.9,429.58c-.8,2-40.17,14.28-40.17,14.28l1.32,3.7c17.49-7.66,36.15-14.8,40.17-14.27C826.31,431.83,819.58,427.94,818.9,429.58Z" transform="translate(-566.05 -402)"/><path class="cls-7" d="M791.24,452.08a8.38,8.38,0,0,1-1.33-1.6c-11.4,1.58-33.82,4.22-20.95-.33,28.43-10-7-1.51-7-1.51,2.16-.32-11,9.79,1.94,9,15.16-.93,22.86-2.62,26.92-4.23A6.8,6.8,0,0,1,791.24,452.08Z" transform="translate(-566.05 -402)"/></svg>